<svg width="46" height="40" viewBox="0 0 46 40" fill="none" xmlns="http://www.w3.org/2000/svg">
<g id="18 1">
<g id="Group">
<path id="Vector" d="M37.8326 28.2231C32.9199 36.4892 21.6885 39.5158 12.7436 34.9758C3.7987 30.4358 0.523552 20.0569 5.43629 11.7908C10.349 3.52477 21.5804 0.498154 30.5253 5.03808C33.615 6.59421 36.1487 8.93555 37.8326 11.7908H40.9842V11.0628L40.8141 10.7487C35.2835 0.955 22.2138 -2.84255 11.6158 2.28271C1.03336 7.39369 -3.07604 19.4716 2.4701 29.2652C8.00081 39.0446 21.0705 42.8421 31.6685 37.717C35.577 35.8324 38.775 32.8771 40.8297 29.2652L40.9995 28.9369V28.2088H37.8479C37.8326 28.2088 37.8326 28.2231 37.8326 28.2231Z" fill="#777E90"/>
<path id="Vector_2" d="M33.9995 18.625H37.9004V15H41.0988V18.625H44.9995V21.3612H41.0988V25H37.9004V21.3612H33.9995V18.625Z" fill="#777E90"/>
<path id="Vector_3" d="M11.2317 16.115H8.99951V13H14.9995V29H11.2744V16.115H11.2317Z" fill="#777E90"/>
<path id="Vector_4" d="M20.6659 27.5386C19.5866 26.5948 18.9698 25.2248 19.0006 23.7941C18.9853 22.6981 19.4016 21.6477 20.1879 20.8563C20.8046 20.2625 21.5447 19.8212 22.362 19.5624C21.7606 19.3187 21.2364 18.9687 20.7893 18.5121C20.0646 17.7814 19.679 16.7919 19.7253 15.7722C19.6945 14.5848 20.1417 13.4127 21.0051 12.5755C23.6262 10.4748 27.3729 10.4748 29.9941 12.5755C30.842 13.4279 31.3046 14.5848 31.2738 15.7722C31.32 16.7919 30.9346 17.7814 30.2099 18.5121C29.7628 18.9687 29.2231 19.3339 28.6372 19.5624C29.4544 19.8058 30.1946 20.2625 30.8112 20.8563C31.5821 21.6477 32.0139 22.6981 31.9984 23.7941C32.0294 25.2248 31.4126 26.5948 30.3333 27.5386C27.3883 29.4871 23.5799 29.4871 20.6659 27.5386ZM23.8267 21.7999C23.3949 22.2718 23.1483 22.8807 23.1483 23.5048C23.1328 24.1442 23.3794 24.7683 23.8267 25.2248C24.7981 26.0468 26.2474 26.0468 27.2187 25.2248C27.6813 24.7531 27.9125 24.1137 27.8972 23.4744C27.9125 22.8503 27.6659 22.2414 27.2187 21.7999C26.7408 21.3737 26.1087 21.1606 25.4764 21.1758C24.8442 21.1454 24.2276 21.3585 23.765 21.7847L23.8267 21.7999ZM23.9808 14.5239C23.1636 15.2698 23.1173 16.5484 23.8729 17.3552C23.9037 17.3856 23.95 17.4313 23.9808 17.4617C24.4126 17.8423 24.9831 18.0402 25.5535 18.0402C26.1395 18.0706 26.71 17.8575 27.1261 17.4617C27.5579 17.0964 27.8046 16.5484 27.7893 15.9852C27.8046 15.3915 27.5733 14.8283 27.1261 14.4325C26.6945 14.0672 26.124 13.8693 25.5535 13.8846C24.9368 13.8693 24.351 14.0824 23.9192 14.5087L23.9808 14.5239Z" fill="#777E90"/>
</g>
</g>
</svg>
